<svg width="40" height="41" viewBox="0 0 40 41" fill="none" xmlns="http://www.w3.org/2000/svg">
<path fill-rule="evenodd" clip-rule="evenodd" d="M36.5845 37.085H38.0922C38.4921 37.085 38.8756 37.2438 39.1583 37.5266C39.4411 37.8093 39.5999 38.1928 39.5999 38.5927C39.5999 38.9926 39.4411 39.376 39.1583 39.6588C38.8756 39.9415 38.4921 40.1004 38.0922 40.1004H1.90759C1.50773 40.1004 1.12424 39.9415 0.841495 39.6588C0.558748 39.376 0.399902 38.9926 0.399902 38.5927C0.399902 38.1928 0.558748 37.8093 0.841495 37.5266C1.12424 37.2438 1.50773 37.085 1.90759 37.085H3.41529V2.40808C3.41529 2.00822 3.57413 1.62473 3.85688 1.34198C4.13963 1.05924 4.52311 0.900391 4.92298 0.900391H23.0153C23.4151 0.900391 23.7986 1.05924 24.0814 1.34198C24.3641 1.62473 24.523 2.00822 24.523 2.40808V6.93116H35.0768C35.4767 6.93116 35.8602 7.09001 36.1429 7.37275C36.4257 7.6555 36.5845 8.03899 36.5845 8.43885V37.085ZM21.5076 3.91578H6.43067V37.085H9.44606V32.5619C9.44606 32.1621 9.6049 31.7786 9.88765 31.4958C10.1704 31.2131 10.5539 31.0542 10.9537 31.0542H16.9845C17.3844 31.0542 17.7679 31.2131 18.0506 31.4958C18.3334 31.7786 18.4922 32.1621 18.4922 32.5619V37.085H33.5691V9.94654H24.523V32.5619C24.523 32.9618 24.3641 33.3453 24.0814 33.628C23.7986 33.9108 23.4151 34.0696 23.0153 34.0696C22.6154 34.0696 22.2319 33.9108 21.9492 33.628C21.6664 33.3453 21.5076 32.9618 21.5076 32.5619V3.91578ZM12.4614 37.085H15.4768V34.0696H12.4614V37.085ZM9.44863 6.93148H12.464V9.94687H9.44863V6.93148ZM9.44863 12.9621H12.464V15.9775H9.44863V12.9621ZM12.464 18.9926H9.44863V22.008H12.464V18.9926ZM9.44863 25.0234H12.464V28.0388H9.44863V25.0234ZM18.4933 6.93148H15.4779V9.94687H18.4933V6.93148ZM27.5413 18.9926H30.5567V22.008H27.5413V18.9926ZM30.5567 12.9622H27.5413V15.9776H30.5567V12.9622ZM15.4779 12.9621H18.4933V15.9775H15.4779V12.9621ZM30.5567 25.0234H27.5413V28.0388H30.5567V25.0234ZM15.4779 18.9926H18.4933V22.008H15.4779V18.9926ZM30.5567 31.0544H27.5413V34.0698H30.5567V31.0544ZM15.4779 25.0234H18.4933V28.0388H15.4779V25.0234Z" fill="#202020"/>
</svg>
