<svg width="39" height="39" viewBox="0 0 39 39" fill="none" xmlns="http://www.w3.org/2000/svg">
<path fill-rule="evenodd" clip-rule="evenodd" d="M32.0462 24.4711H37.7425C37.9103 24.4711 38.0713 24.5401 38.19 24.6628C38.3087 24.7856 38.3754 24.9522 38.3754 25.1258V27.7448C38.3754 27.9184 38.3087 28.085 38.19 28.2078C38.0713 28.3305 37.9103 28.3995 37.7425 28.3995H37.1095V38.2206C37.1095 38.3943 37.0429 38.5608 36.9242 38.6836C36.8055 38.8064 36.6445 38.8754 36.4766 38.8754H8.62799C8.46013 38.8754 8.29914 38.8064 8.18045 38.6836C8.06175 38.5608 7.99507 38.3943 7.99507 38.2206V36.2322C7.55482 36.197 7.12515 36.075 6.72922 35.8727V38.2206C6.72922 38.3943 6.66254 38.5608 6.54384 38.6836C6.42514 38.8064 6.26416 38.8754 6.0963 38.8754C5.92843 38.8754 5.76745 38.8064 5.64875 38.6836C5.53006 38.5608 5.46337 38.3943 5.46337 38.2206V35.8727C4.98643 36.1217 4.46022 36.253 3.926 36.2564C3.09671 36.2582 2.29348 35.9568 1.65804 35.4056C1.02261 34.8544 0.595816 34.0887 0.45298 33.2436C0.310144 32.3986 0.460446 31.5285 0.877364 30.7869C1.29428 30.0453 1.95102 29.4799 2.73167 29.1905C2.62537 28.8438 2.57094 28.4823 2.57028 28.1186C2.56923 27.4641 2.73876 26.8213 3.06103 26.2579C3.3833 25.6946 3.84639 25.2315 4.40158 24.9175C4.95676 24.6034 5.58352 24.45 6.21589 24.4733C6.84827 24.4965 7.46288 24.6957 7.99507 25.0499V1.55513C7.99507 1.38148 8.06175 1.21495 8.18045 1.09216C8.29914 0.969372 8.46013 0.900391 8.62799 0.900391H31.4132C31.5811 0.900391 31.7421 0.969372 31.8608 1.09216C31.9795 1.21495 32.0462 1.38148 32.0462 1.55513V24.4711ZM5.64875 32.5197C5.76745 32.397 5.92843 32.328 6.0963 32.328C6.26416 32.328 6.42514 32.397 6.54384 32.5197C6.66254 32.6425 6.72922 32.8091 6.72922 32.9827V34.2922C7.14036 34.7102 7.69329 34.9452 8.26975 34.9469C8.84862 34.9501 9.40646 34.7227 9.82754 34.3118C10.2486 33.9008 10.5006 33.338 10.5312 32.74C10.5618 32.142 10.3687 31.5548 9.99195 31.1001C9.61519 30.6455 9.08369 30.3583 8.50773 30.2983C8.40217 30.2866 8.30115 30.2476 8.21398 30.1849C8.1268 30.1222 8.05626 30.0379 8.00886 29.9396C7.96145 29.8413 7.93871 29.7323 7.94271 29.6226C7.94672 29.5128 7.97734 29.4059 8.03178 29.3116C8.24465 28.9525 8.35806 28.5399 8.35963 28.1186C8.35963 27.4985 8.12151 26.9038 7.69764 26.4654C7.27378 26.0269 6.69889 25.7806 6.09946 25.7806C5.50003 25.7806 4.92514 26.0269 4.50128 26.4654C4.07742 26.9038 3.83929 27.4985 3.83929 28.1186C3.84086 28.5399 3.95427 28.9525 4.16715 29.3116C4.22158 29.4059 4.2522 29.5128 4.25621 29.6226C4.26021 29.7323 4.23747 29.8413 4.19006 29.9396C4.14266 30.0379 4.07212 30.1222 3.98495 30.1849C3.89777 30.2476 3.79675 30.2866 3.69119 30.2983C3.11553 30.3584 2.58429 30.6453 2.20759 31.0995C1.83088 31.5538 1.63759 32.1406 1.66778 32.7383C1.69797 33.336 1.94933 33.8988 2.36975 34.31C2.79018 34.7212 3.34743 34.9493 3.926 34.9469C4.50137 34.9443 5.05301 34.7094 5.46337 34.2922V32.9827C5.46337 32.8091 5.53006 32.6425 5.64875 32.5197ZM16.856 37.5659H23.1852V31.0185H16.856V37.5659ZM24.4511 37.5659H30.7803V2.20987H9.26091V26.5204C9.49812 27.0175 9.62177 27.5643 9.62231 28.1186C9.62165 28.4823 9.56722 28.8438 9.46092 29.1905C10.1602 29.4493 10.7623 29.9306 11.1809 30.5654C11.5994 31.2001 11.8129 31.9557 11.7907 32.7237C11.7685 33.4917 11.5117 34.2327 11.0573 34.8404C10.6028 35.4481 9.97394 35.8913 9.26091 36.1065V37.5659H15.5901V30.3638C15.5901 30.1901 15.6568 30.0236 15.7755 29.9008C15.8942 29.778 16.0552 29.709 16.2231 29.709H23.8181C23.986 29.709 24.147 29.778 24.2657 29.9008C24.3844 30.0236 24.4511 30.1901 24.4511 30.3638V33.9648V37.5659ZM32.0462 37.5659H35.8437V28.3995H32.0462V37.5659ZM32.0462 27.09H37.1095V25.7806H32.0462V27.09ZM13.6928 8.75745H11.1611C10.9932 8.75745 10.8322 8.68847 10.7136 8.56568C10.5949 8.44289 10.5282 8.27635 10.5282 8.10271V4.17426C10.5282 4.00061 10.5949 3.83407 10.7136 3.71129C10.8322 3.5885 10.9932 3.51952 11.1611 3.51952H13.6928C13.8607 3.51952 14.0216 3.5885 14.1403 3.71129C14.259 3.83407 14.3257 4.00061 14.3257 4.17426V8.10271C14.3257 8.27635 14.259 8.44289 14.1403 8.56568C14.0216 8.68847 13.8607 8.75745 13.6928 8.75745ZM13.0599 4.829H11.794V7.44796H13.0599V4.829ZM16.2214 8.75745H18.7531C18.921 8.75745 19.0819 8.68847 19.2006 8.56568C19.3193 8.44289 19.386 8.27635 19.386 8.10271V4.17426C19.386 4.00061 19.3193 3.83407 19.2006 3.71129C19.0819 3.5885 18.921 3.51952 18.7531 3.51952H16.2214C16.0535 3.51952 15.8926 3.5885 15.7739 3.71129C15.6552 3.83407 15.5885 4.00061 15.5885 4.17426V8.10271C15.5885 8.27635 15.6552 8.44289 15.7739 8.56568C15.8926 8.68847 16.0535 8.75745 16.2214 8.75745ZM16.8543 4.829H18.1202V7.44796H16.8543V4.829ZM21.2841 8.75745H23.8158C23.9837 8.75745 24.1446 8.68847 24.2633 8.56568C24.382 8.44289 24.4487 8.27635 24.4487 8.10271V4.17426C24.4487 4.00061 24.382 3.83407 24.2633 3.71129C24.1446 3.5885 23.9837 3.51952 23.8158 3.51952H21.2841C21.1162 3.51952 20.9552 3.5885 20.8366 3.71129C20.7179 3.83407 20.6512 4.00061 20.6512 4.17426V8.10271C20.6512 8.27635 20.7179 8.44289 20.8366 8.56568C20.9552 8.68847 21.1162 8.75745 21.2841 8.75745ZM21.917 4.829H23.1829V7.44796H21.917V4.829ZM28.8809 8.75745H26.3492C26.1813 8.75745 26.0204 8.68847 25.9017 8.56568C25.783 8.44289 25.7163 8.27635 25.7163 8.10271V4.17426C25.7163 4.00061 25.783 3.83407 25.9017 3.71129C26.0204 3.5885 26.1813 3.51952 26.3492 3.51952H28.8809C29.0488 3.51952 29.2098 3.5885 29.3284 3.71129C29.4471 3.83407 29.5138 4.00061 29.5138 4.17426V8.10271C29.5138 8.27635 29.4471 8.44289 29.3284 8.56568C29.2098 8.68847 29.0488 8.75745 28.8809 8.75745ZM28.248 4.829H26.9821V7.44796H28.248V4.829ZM16.2214 15.3047H18.7531C18.921 15.3047 19.0819 15.2358 19.2006 15.113C19.3193 14.9902 19.386 14.8236 19.386 14.65V10.7215C19.386 10.5479 19.3193 10.3814 19.2006 10.2586C19.0819 10.1358 18.921 10.0668 18.7531 10.0668H16.2214C16.0535 10.0668 15.8926 10.1358 15.7739 10.2586C15.6552 10.3814 15.5885 10.5479 15.5885 10.7215V14.65C15.5885 14.8236 15.6552 14.9902 15.7739 15.113C15.8926 15.2358 16.0535 15.3047 16.2214 15.3047ZM16.8543 11.3763H18.1202V13.9953H16.8543V11.3763ZM23.8158 15.3047H21.2841C21.1162 15.3047 20.9552 15.2358 20.8366 15.113C20.7179 14.9902 20.6512 14.8236 20.6512 14.65V10.7215C20.6512 10.5479 20.7179 10.3814 20.8366 10.2586C20.9552 10.1358 21.1162 10.0668 21.2841 10.0668H23.8158C23.9837 10.0668 24.1446 10.1358 24.2633 10.2586C24.382 10.3814 24.4487 10.5479 24.4487 10.7215V14.65C24.4487 14.8236 24.382 14.9902 24.2633 15.113C24.1446 15.2358 23.9837 15.3047 23.8158 15.3047ZM23.1829 11.3763H21.917V13.9953H23.1829V11.3763ZM26.3492 15.3047H28.8809C29.0488 15.3047 29.2098 15.2358 29.3284 15.113C29.4471 14.9902 29.5138 14.8237 29.5138 14.65V10.7216C29.5138 10.5479 29.4471 10.3814 29.3284 10.2586C29.2098 10.1358 29.0488 10.0668 28.8809 10.0668H26.3492C26.1813 10.0668 26.0204 10.1358 25.9017 10.2586C25.783 10.3814 25.7163 10.5479 25.7163 10.7216V14.65C25.7163 14.8237 25.783 14.9902 25.9017 15.113C26.0204 15.2358 26.1813 15.3047 26.3492 15.3047ZM26.9821 11.3763H28.248V13.9953H26.9821V11.3763ZM11.1611 15.3047H13.6928C13.8607 15.3047 14.0216 15.2358 14.1403 15.113C14.259 14.9902 14.3257 14.8236 14.3257 14.65V10.7215C14.3257 10.5479 14.259 10.3814 14.1403 10.2586C14.0216 10.1358 13.8607 10.0668 13.6928 10.0668H11.1611C10.9932 10.0668 10.8322 10.1358 10.7136 10.2586C10.5949 10.3814 10.5282 10.5479 10.5282 10.7215V14.65C10.5282 14.8236 10.5949 14.9902 10.7136 15.113C10.8322 15.2358 10.9932 15.3047 11.1611 15.3047ZM11.794 11.3763H13.0599V13.9953H11.794V11.3763ZM18.7531 21.8523H16.2214C16.0535 21.8523 15.8926 21.7833 15.7739 21.6606C15.6552 21.5378 15.5885 21.3712 15.5885 21.1976V17.2691C15.5885 17.0955 15.6552 16.929 15.7739 16.8062C15.8926 16.6834 16.0535 16.6144 16.2214 16.6144H18.7531C18.921 16.6144 19.0819 16.6834 19.2006 16.8062C19.3193 16.929 19.386 17.0955 19.386 17.2691V21.1976C19.386 21.3712 19.3193 21.5378 19.2006 21.6606C19.0819 21.7833 18.921 21.8523 18.7531 21.8523ZM18.1202 17.9239H16.8543V20.5428H18.1202V17.9239ZM11.1611 21.8523H13.6928C13.8607 21.8523 14.0216 21.7833 14.1403 21.6606C14.259 21.5378 14.3257 21.3712 14.3257 21.1976V17.2691C14.3257 17.0955 14.259 16.929 14.1403 16.8062C14.0216 16.6834 13.8607 16.6144 13.6928 16.6144H11.1611C10.9932 16.6144 10.8322 16.6834 10.7136 16.8062C10.5949 16.929 10.5282 17.0955 10.5282 17.2691V21.1976C10.5282 21.3712 10.5949 21.5378 10.7136 21.6606C10.8322 21.7833 10.9932 21.8523 11.1611 21.8523ZM11.794 17.9239H13.0599V20.5428H11.794V17.9239ZM23.8158 21.8523H21.2841C21.1162 21.8523 20.9552 21.7833 20.8366 21.6606C20.7179 21.5378 20.6512 21.3712 20.6512 21.1976V17.2691C20.6512 17.0955 20.7179 16.929 20.8366 16.8062C20.9552 16.6834 21.1162 16.6144 21.2841 16.6144H23.8158C23.9837 16.6144 24.1446 16.6834 24.2633 16.8062C24.382 16.929 24.4487 17.0955 24.4487 17.2691V21.1976C24.4487 21.3712 24.382 21.5378 24.2633 21.6606C24.1446 21.7833 23.9837 21.8523 23.8158 21.8523ZM23.1829 17.9239H21.917V20.5428H23.1829V17.9239ZM26.3492 21.8523H28.8809C29.0488 21.8523 29.2098 21.7833 29.3284 21.6605C29.4471 21.5377 29.5138 21.3712 29.5138 21.1976V17.2691C29.5138 17.0955 29.4471 16.9289 29.3284 16.8061C29.2098 16.6834 29.0488 16.6144 28.8809 16.6144H26.3492C26.1813 16.6144 26.0204 16.6834 25.9017 16.8061C25.783 16.9289 25.7163 17.0955 25.7163 17.2691V21.1976C25.7163 21.3712 25.783 21.5377 25.9017 21.6605C26.0204 21.7833 26.1813 21.8523 26.3492 21.8523ZM26.9821 17.9239H28.248V20.5428H26.9821V17.9239ZM18.7531 28.3996H16.2214C16.0535 28.3996 15.8926 28.3306 15.7739 28.2078C15.6552 28.0851 15.5885 27.9185 15.5885 27.7449V23.8164C15.5885 23.6428 15.6552 23.4762 15.7739 23.3535C15.8926 23.2307 16.0535 23.1617 16.2214 23.1617H18.7531C18.921 23.1617 19.0819 23.2307 19.2006 23.3535C19.3193 23.4762 19.386 23.6428 19.386 23.8164V27.7449C19.386 27.9185 19.3193 28.0851 19.2006 28.2078C19.0819 28.3306 18.921 28.3996 18.7531 28.3996ZM18.1202 24.4712H16.8543V27.0901H18.1202V24.4712ZM11.1611 28.3996H13.6928C13.8607 28.3996 14.0216 28.3306 14.1403 28.2078C14.259 28.0851 14.3257 27.9185 14.3257 27.7449V23.8164C14.3257 23.6428 14.259 23.4762 14.1403 23.3535C14.0216 23.2307 13.8607 23.1617 13.6928 23.1617H11.1611C10.9932 23.1617 10.8322 23.2307 10.7136 23.3535C10.5949 23.4762 10.5282 23.6428 10.5282 23.8164V27.7449C10.5282 27.9185 10.5949 28.0851 10.7136 28.2078C10.8322 28.3306 10.9932 28.3996 11.1611 28.3996ZM11.794 24.4712H13.0599V27.0901H11.794V24.4712ZM23.8158 28.3996H21.2841C21.1162 28.3996 20.9552 28.3306 20.8366 28.2078C20.7179 28.0851 20.6512 27.9185 20.6512 27.7449V23.8164C20.6512 23.6428 20.7179 23.4762 20.8366 23.3535C20.9552 23.2307 21.1162 23.1617 21.2841 23.1617H23.8158C23.9837 23.1617 24.1446 23.2307 24.2633 23.3535C24.382 23.4762 24.4487 23.6428 24.4487 23.8164V27.7449C24.4487 27.9185 24.382 28.0851 24.2633 28.2078C24.1446 28.3306 23.9837 28.3996 23.8158 28.3996ZM23.1829 24.4712H21.917V27.0901H23.1829V24.4712ZM26.3492 28.3996H28.8809C29.0488 28.3996 29.2098 28.3306 29.3284 28.2078C29.4471 28.085 29.5138 27.9185 29.5138 27.7449V23.8164C29.5138 23.6428 29.4471 23.4762 29.3284 23.3534C29.2098 23.2306 29.0488 23.1617 28.8809 23.1617H26.3492C26.1813 23.1617 26.0204 23.2306 25.9017 23.3534C25.783 23.4762 25.7163 23.6428 25.7163 23.8164V27.7449C25.7163 27.9185 25.783 28.085 25.9017 28.2078C26.0204 28.3306 26.1813 28.3996 26.3492 28.3996ZM26.9821 24.4712H28.248V27.0901H26.9821V24.4712Z" fill="#202020"/>
</svg>
