<svg width="39" height="35" viewBox="0 0 39 35" fill="none" xmlns="http://www.w3.org/2000/svg">
<path fill-rule="evenodd" clip-rule="evenodd" d="M19.2228 0.485523C19.1718 0.56254 19.0512 0.66221 18.9538 0.712045C18.8611 0.76188 18.7219 0.852489 18.6477 0.911385C18.5736 0.974811 18.5179 1.04277 18.5225 1.06089C18.5225 1.07901 18.453 1.13791 18.3695 1.18774C18.2814 1.23758 18.1005 1.36896 17.9661 1.48222C17.8316 1.59548 17.6368 1.77217 17.5348 1.8809C17.4281 1.9851 17.3215 2.07571 17.2983 2.07571C17.2751 2.07571 17.2055 2.11648 17.1453 2.16179C17.0896 2.21162 17.0432 2.27052 17.0432 2.2977C17.0432 2.32488 17.0154 2.34301 16.983 2.34301C16.9551 2.34301 16.7928 2.46533 16.6259 2.61483C16.4589 2.76434 16.3013 2.89119 16.2781 2.89119C16.2549 2.89119 16.1621 2.97274 16.0787 3.06788C15.9998 3.16755 15.8978 3.24909 15.8607 3.24909C15.8236 3.24909 15.7819 3.28081 15.768 3.31705C15.7541 3.35329 15.717 3.38501 15.6845 3.38501C15.6567 3.38501 15.5871 3.42578 15.5361 3.47562C15.5155 3.49392 15.4835 3.52332 15.4463 3.55753L15.4462 3.55765L15.4462 3.55769L15.4461 3.55777L15.446 3.55788L15.4457 3.55809L15.4457 3.55814L15.4454 3.55835C15.3907 3.60866 15.3249 3.66924 15.2671 3.72026C15.1744 3.81087 15.0956 3.8743 15.0956 3.8607C15.0956 3.84711 15.0167 3.91507 14.9193 4.00568C14.8266 4.10082 14.6736 4.23673 14.5855 4.31375C14.4973 4.38624 14.3675 4.47231 14.2933 4.50403C14.2237 4.53574 14.1727 4.58105 14.1774 4.6037C14.1867 4.62635 14.0058 4.79398 13.7786 4.97519C13.556 5.16094 13.2824 5.36481 13.1804 5.43277C13.0737 5.50526 13.0088 5.55962 13.032 5.55962C13.0551 5.55509 13.0459 5.5868 13.0088 5.62758C12.9717 5.66835 12.9067 5.69554 12.8697 5.69554C12.8326 5.691 12.7444 5.76349 12.6702 5.8541C12.6007 5.94018 12.5126 6.01267 12.4755 6.01267C12.4384 6.01267 12.3642 6.07609 12.3132 6.14858C12.2622 6.22107 12.1972 6.28449 12.1741 6.28449C12.1462 6.28449 12.0999 6.30261 12.0674 6.3298C12.0396 6.35245 11.9561 6.42041 11.8912 6.47477C11.8216 6.53367 11.6871 6.6424 11.5898 6.71489C11.4924 6.78737 11.3486 6.91876 11.2744 6.99577C11.1956 7.07732 11.1121 7.14528 11.0843 7.14528C11.0565 7.14528 10.9637 7.22683 10.8756 7.3265C10.7875 7.42617 10.6947 7.50771 10.6669 7.50771C10.6391 7.50771 10.5417 7.57114 10.449 7.65269C10.3562 7.73424 10.2217 7.85203 10.1475 7.91545C10.078 7.97888 9.98524 8.04684 9.9435 8.07402C9.90177 8.1012 9.75801 8.20993 9.62353 8.32319C9.48905 8.43645 9.33138 8.56784 9.27109 8.61767L9.1598 8.70828L9.14125 11.3812C11.4738 11.3631 12.1787 11.3722 12.2065 11.3903C12.2529 11.4175 12.2668 12.2964 12.2761 15.2684L12.29 19.1102C23.2712 19.1057 26.4802 19.0966 26.5034 19.083C26.5358 19.0694 26.5497 17.742 26.5497 15.2457C26.5497 13.1436 26.5637 11.4175 26.5776 11.4039C26.5915 11.3903 26.8141 11.3767 27.0738 11.3722C27.3334 11.3722 27.7647 11.3677 28.0337 11.3631C28.1638 11.3631 28.3406 11.3621 28.5232 11.361C28.7179 11.3598 28.9191 11.3586 29.0771 11.3586C29.3831 11.3541 29.6382 11.3495 29.6475 11.345C29.6567 11.3405 29.666 10.7606 29.6707 10.0629L29.6799 8.7853C29.3553 8.4727 29.1976 8.35038 29.1235 8.3096C29.0493 8.26883 28.8081 8.06949 28.5902 7.86562C28.3722 7.66175 28.1125 7.44429 28.0059 7.37633C27.9038 7.3129 27.7183 7.1634 27.6024 7.04561C27.4818 6.92329 27.352 6.82815 27.3149 6.82815C27.2778 6.82815 27.1804 6.7466 27.1062 6.64693C27.032 6.54726 26.9578 6.47477 26.9439 6.48836C26.93 6.50195 26.8558 6.44759 26.7816 6.3751C26.7074 6.30261 26.6425 6.25278 26.6425 6.27543C26.6471 6.29355 26.6054 6.25278 26.5497 6.18482C26.4987 6.11234 26.4245 6.05797 26.3874 6.05797C26.3503 6.05797 26.2715 5.99454 26.2159 5.92206C26.1556 5.84504 26.0953 5.78614 26.0767 5.78614C26.0535 5.78614 25.9747 5.73631 25.9005 5.67288C25.8263 5.60946 25.7753 5.55056 25.7939 5.53697C25.8078 5.52338 25.7939 5.51432 25.7568 5.51432C25.7197 5.51432 25.6362 5.45995 25.5713 5.392C25.5063 5.31951 25.3626 5.19266 25.2513 5.10658C25.14 5.0205 24.9777 4.88005 24.8849 4.79851C24.7922 4.71696 24.667 4.62182 24.6021 4.58558C24.5371 4.55386 24.4305 4.46325 24.3609 4.38624C24.2867 4.30922 24.2033 4.24579 24.1754 4.24579C24.143 4.25032 24.0409 4.16878 23.9528 4.06457C23.8647 3.96491 23.7766 3.88336 23.7581 3.88336C23.7349 3.88336 23.6607 3.83805 23.5819 3.78369C23.5077 3.72479 23.4566 3.6659 23.4659 3.64777C23.4798 3.62512 23.4752 3.61153 23.4566 3.61153C23.4335 3.61606 23.3685 3.56623 23.3036 3.50733C23.2387 3.45296 23.0439 3.29893 22.8631 3.17208C22.6822 3.04069 22.5106 2.89572 22.4828 2.84588C22.4503 2.79152 22.2927 2.6692 22.135 2.57406C21.9727 2.47439 21.7687 2.30676 21.6806 2.20256C21.5924 2.09383 21.4255 1.94886 21.3096 1.87637C21.1936 1.80841 21.0267 1.67703 20.9386 1.59095C20.8505 1.50487 20.7345 1.39161 20.6835 1.34631C20.6325 1.29647 20.563 1.26023 20.5351 1.2557C20.5027 1.2557 20.447 1.21492 20.4192 1.16962C20.3867 1.12432 20.2152 0.979341 20.0343 0.852489C19.8535 0.721106 19.7143 0.598784 19.7236 0.576132C19.7282 0.548949 19.719 0.539888 19.7004 0.553479C19.6772 0.56254 19.6123 0.521766 19.5474 0.45834C19.4825 0.399444 19.4083 0.349609 19.3758 0.349609C19.348 0.349609 19.2784 0.413036 19.2228 0.485523ZM19.1121 2.54754C19.011 2.63745 18.8738 2.75939 18.7915 2.82777C18.6987 2.90932 18.5967 2.97727 18.5735 2.97727C18.5504 2.97727 18.4901 3.02258 18.4483 3.08147C18.402 3.14037 18.3278 3.20379 18.286 3.23098C18.2443 3.25363 18.0866 3.38501 17.9336 3.52093C17.7806 3.65684 17.558 3.84259 17.4374 3.92867C17.3168 4.01474 17.0989 4.19596 16.9551 4.32734C16.8114 4.45873 16.6583 4.57652 16.6166 4.58558C16.5702 4.59917 16.5424 4.62635 16.5563 4.65354C16.5702 4.67619 16.5656 4.69884 16.547 4.69884C16.5238 4.69431 16.4265 4.77133 16.3244 4.86194C16.2224 4.95255 16.0184 5.10205 15.8746 5.20172C15.7262 5.29686 15.5778 5.41918 15.55 5.46449C15.5175 5.51432 15.3321 5.66836 15.1419 5.8088C14.9518 5.95377 14.7895 6.08063 14.7848 6.09875C14.7802 6.11234 14.6086 6.26185 14.4046 6.42947C14.1959 6.60163 14.029 6.72395 14.029 6.7013C14.029 6.68318 13.9965 6.71489 13.9501 6.76926C13.9038 6.82362 13.8527 6.86893 13.8342 6.87346C13.811 6.87346 13.7136 6.95953 13.6116 7.06373C13.5096 7.17246 13.4261 7.23589 13.4261 7.21324C13.4261 7.18606 13.3937 7.21324 13.3473 7.2676C13.3009 7.32197 13.236 7.36727 13.2082 7.3718C13.1757 7.3718 13.0783 7.45335 12.9995 7.55302C12.916 7.65269 12.8233 7.73424 12.8001 7.73424C12.7769 7.73877 12.596 7.87015 12.4059 8.02872C12.3596 8.06731 12.3112 8.10777 12.2631 8.1479C12.1137 8.27265 11.9682 8.3941 11.9051 8.44552C11.817 8.51348 11.65 8.66751 11.5341 8.7853C11.4135 8.9031 11.2883 8.99823 11.2605 9.00276C11.228 9.00276 11.1167 9.07525 11.0147 9.16133C10.9127 9.24741 10.8431 9.3199 10.8663 9.32443C10.8849 9.32443 10.8524 9.34255 10.7968 9.36973C10.7365 9.39238 10.6669 9.45581 10.6391 9.51017C10.6113 9.56907 10.5974 9.66421 10.6113 9.72764C10.6252 9.79106 10.6762 9.84996 10.7226 9.86355C10.7689 9.87714 11.4784 9.89073 12.2992 9.8862H13.7971C13.8017 12.5909 13.8064 14.3124 13.811 15.4586L13.8203 17.5381C14.0243 17.6378 15.2486 17.6514 19.4314 17.6514C24.078 17.6514 24.8246 17.6423 24.9174 17.588L25.0194 17.52L24.9962 9.90885C25.3208 9.90432 25.9791 9.90432 26.6653 9.90432H26.6657C27.5978 9.90885 27.9456 9.89526 28.0337 9.84996C28.1218 9.80918 28.1542 9.75482 28.1635 9.62344C28.1682 9.49658 28.1542 9.45128 28.094 9.43316C28.0476 9.4241 27.9641 9.35161 27.9085 9.27459C27.8482 9.2021 27.774 9.13868 27.7462 9.13868C27.7137 9.13868 27.6256 9.07525 27.5467 9.00276C27.4726 8.93028 27.3288 8.80342 27.236 8.72188C27.1912 8.68247 27.1399 8.63777 27.0931 8.59699C27.043 8.55338 26.9981 8.51424 26.9717 8.49082C26.9618 8.48358 26.9524 8.47663 26.9436 8.47011C26.9026 8.43993 26.8743 8.41914 26.8743 8.42287C26.8697 8.43193 26.7909 8.3685 26.6981 8.28695C26.6054 8.20088 26.4245 8.04231 26.2947 7.93358C26.1695 7.82485 26.0396 7.73424 26.0164 7.73424C25.9932 7.73424 25.8959 7.66628 25.8078 7.58927C25.7196 7.50772 25.6501 7.42617 25.6594 7.40805C25.664 7.38993 25.6362 7.3718 25.5991 7.3718C25.562 7.3718 25.5202 7.34009 25.5063 7.30385C25.4924 7.2676 25.46 7.23589 25.4368 7.23589C25.4136 7.23589 25.3394 7.17246 25.2745 7.09998C25.2095 7.02749 25.1307 6.96406 25.1029 6.96406C25.0704 6.95953 24.9962 6.91876 24.9406 6.87346C24.8803 6.82362 24.8339 6.76472 24.8339 6.73754C24.8339 6.71036 24.8107 6.69224 24.7875 6.69224C24.7644 6.69224 24.6252 6.58804 24.4861 6.46571C24.347 6.33886 24.1754 6.20295 24.1059 6.16218C24.0317 6.11687 23.9389 6.03532 23.8972 5.98096C23.8462 5.91753 23.7905 5.89035 23.7581 5.90847C23.7179 5.93263 23.7101 5.92508 23.7349 5.88582C23.7534 5.8541 23.7256 5.8088 23.6514 5.77256C23.5865 5.74537 23.5355 5.7046 23.5355 5.68195C23.5355 5.66383 23.5123 5.65024 23.4891 5.65024C23.4659 5.65024 23.4103 5.61852 23.3732 5.58228C23.3361 5.54603 23.3175 5.51432 23.3407 5.51432C23.3593 5.50979 23.3036 5.48261 23.2248 5.44636C23.1413 5.41012 23.0625 5.33763 23.0486 5.2878C23.0346 5.23343 22.9883 5.19719 22.9326 5.19719C22.8816 5.19719 22.8028 5.14283 22.761 5.07487C22.7147 5.01144 22.5616 4.86194 22.4179 4.74868C22.2741 4.63542 22.0979 4.4995 22.0237 4.44967C21.9541 4.39983 21.8521 4.31828 21.7965 4.26845C21.7455 4.21861 21.6898 4.18237 21.6713 4.1869C21.6481 4.19596 21.6388 4.17784 21.6481 4.15066C21.6527 4.12347 21.5832 4.06005 21.495 4.01474C21.4069 3.96491 21.3096 3.88789 21.2817 3.84712C21.2539 3.80634 21.1333 3.70667 21.0174 3.63419C20.8968 3.5617 20.7995 3.47109 20.7995 3.43938C20.7995 3.41219 20.7392 3.3533 20.6603 3.31706C20.5861 3.28081 20.5073 3.22192 20.4888 3.1902C20.4656 3.15849 20.396 3.09959 20.3264 3.05429C20.2522 3.01352 20.1502 2.94103 20.0946 2.89572C20.0436 2.85495 19.9601 2.78246 19.9091 2.73716C19.8627 2.69638 19.7746 2.6239 19.7097 2.57859C19.6448 2.53782 19.603 2.49251 19.6169 2.47892C19.6262 2.46533 19.603 2.43362 19.5567 2.40191C19.5149 2.37019 19.4454 2.34754 19.4083 2.34754C19.3712 2.34754 19.2552 2.42003 19.1486 2.51517C19.1371 2.52533 19.1249 2.53618 19.1121 2.54754Z" fill="#202020"/>
<path d="M31.4375 14.5435C31.4282 14.5616 30.6909 14.5707 29.7959 14.5616L28.1728 14.5526V15.9796C30.1668 15.9796 30.7141 15.9978 30.7697 16.025C30.8207 16.0476 30.8717 16.1337 30.8856 16.2062C30.8995 16.2787 30.9413 16.3511 30.9784 16.3647C31.0155 16.3783 31.0479 16.4282 31.0479 16.478C31.0479 16.5278 31.0897 16.623 31.1407 16.6909C31.1963 16.7634 31.2334 16.8495 31.2334 16.8857C31.2288 16.922 31.2613 16.9809 31.303 17.0081C31.3401 17.0398 31.3679 17.0805 31.3679 17.0987C31.3633 17.1213 31.3633 17.1712 31.3679 17.2119C31.3679 17.2572 31.4143 17.3297 31.4607 17.3705C31.5117 17.4158 31.558 17.4928 31.5673 17.5427C31.572 17.5925 31.6091 17.6604 31.6415 17.6876C31.6693 17.7193 31.6879 17.7692 31.674 17.7918C31.6601 17.8145 31.7064 17.9232 31.776 18.0274C31.8456 18.1361 31.9058 18.263 31.9105 18.3128C31.9151 18.3627 31.9429 18.4533 31.9754 18.5167C32.0079 18.5801 32.0496 18.639 32.0681 18.6526C32.0821 18.6662 32.1284 18.7477 32.1702 18.8338C32.2119 18.9199 32.2583 19.0422 32.2815 19.1057C32.3 19.1691 32.3557 19.2597 32.402 19.3095C32.4484 19.3594 32.4855 19.4364 32.4855 19.4771C32.4855 19.5225 32.5087 19.5678 32.5319 19.5814C32.5551 19.5949 32.5783 19.6448 32.5783 19.6946C32.5783 19.7444 32.6246 19.8713 32.6849 19.971C32.7406 20.0752 32.8008 20.1658 32.824 20.1748C32.8426 20.1839 32.8565 20.2337 32.8565 20.2836C32.8565 20.3334 32.9075 20.4693 32.9724 20.5871C33.0373 20.7094 33.0884 20.8272 33.0884 20.8499C33.0837 20.8725 33.1162 20.9224 33.1579 20.9495C33.195 20.9813 33.2182 21.022 33.2043 21.0402C33.195 21.0628 33.2368 21.1489 33.297 21.235C33.362 21.321 33.413 21.4207 33.413 21.4479C33.413 21.4796 33.464 21.6155 33.5289 21.7424C33.5938 21.8738 33.6866 22.0459 33.7329 22.1184C33.784 22.1909 33.8257 22.2906 33.8257 22.3313C33.8303 22.3766 33.8767 22.499 33.9277 22.6032C33.9834 22.7119 34.0483 22.807 34.0715 22.8206C34.09 22.8342 34.1178 22.884 34.1271 22.9339C34.141 22.9837 34.1503 23.0517 34.1503 23.0789C34.1549 23.1106 34.1828 23.1649 34.2152 23.1921C34.2523 23.2238 34.3312 23.3507 34.3961 23.4775C34.461 23.5999 34.5259 23.7675 34.5491 23.84C34.5677 23.9125 34.6187 24.0257 34.6697 24.0891C34.7161 24.1526 34.7671 24.2658 34.781 24.3383C34.7949 24.4108 34.8505 24.5286 34.8969 24.5966C34.9479 24.669 34.9897 24.7642 34.9897 24.814C34.9897 24.8638 35.0268 24.9409 35.0731 24.9816C35.1195 25.0269 35.1705 25.1085 35.1891 25.1629C35.2076 25.2263 35.2586 25.2671 35.3143 25.2671C35.3653 25.2671 35.4163 25.2897 35.4302 25.3124C35.4441 25.3395 35.9635 25.3577 36.8585 25.3531C37.6283 25.3531 38.2868 25.3395 38.3193 25.3305C38.361 25.3169 38.3749 25.1266 38.3749 24.5875V23.8626C36.5432 23.8626 36.3391 23.849 36.2556 23.7947C36.1954 23.7584 36.1397 23.6633 36.1258 23.5908C36.1119 23.5183 36.0794 23.4549 36.047 23.4549C36.0191 23.4549 36.0099 23.4413 36.0238 23.4186C36.0423 23.4005 36.0284 23.3597 35.996 23.328C35.9681 23.2963 35.9542 23.2691 35.9774 23.2737C35.996 23.2737 35.9681 23.2329 35.9171 23.1831C35.8661 23.1332 35.8336 23.0653 35.8429 23.0336C35.8522 23.0064 35.8244 22.9158 35.7826 22.8387C35.7618 22.798 35.7351 22.7447 35.7084 22.6915C35.6818 22.6383 35.6551 22.585 35.6342 22.5443C35.5925 22.4582 35.4951 22.2498 35.4256 22.0776C35.3514 21.91 35.2772 21.7605 35.2586 21.7514C35.2354 21.7424 35.1705 21.6291 35.1056 21.5068C35.0407 21.3799 34.9989 21.2576 35.0128 21.235C35.0268 21.2123 35.0128 21.1897 34.9897 21.1897C34.9665 21.1897 34.9526 21.167 34.9665 21.1444C34.9804 21.1217 34.9572 21.0855 34.9155 21.0628C34.8784 21.0447 34.8227 20.9586 34.7995 20.8725C34.7921 20.8496 34.7844 20.8253 34.7767 20.8014L34.7767 20.8013C34.7557 20.7356 34.7355 20.6726 34.7253 20.646C34.7068 20.6098 34.6929 20.569 34.6929 20.5554C34.6882 20.5418 34.6558 20.4648 34.6187 20.3832C34.5816 20.3017 34.5352 20.2337 34.5167 20.2383C34.4935 20.2383 34.4888 20.2066 34.5027 20.1703C34.5167 20.1341 34.4842 20.0616 34.4332 20.0117C34.3822 19.9619 34.3404 19.8804 34.3404 19.8305C34.3404 19.7807 34.3172 19.7399 34.2941 19.7399C34.2709 19.7399 34.257 19.7173 34.2709 19.6946C34.2848 19.672 34.2616 19.6176 34.2245 19.5814C34.1874 19.5451 34.1689 19.5134 34.192 19.5134C34.2106 19.5179 34.2013 19.4907 34.1735 19.459C34.1457 19.4273 34.1086 19.3458 34.09 19.2733C34.0761 19.2053 34.039 19.151 34.0158 19.151C33.9926 19.151 33.9694 19.1147 33.9694 19.0694C33.9694 19.0286 33.9277 18.9426 33.8767 18.8791C33.8257 18.8157 33.784 18.7296 33.784 18.6843C33.784 18.6435 33.7329 18.5122 33.6727 18.3898C33.6678 18.3803 33.6627 18.3703 33.6573 18.36C33.6503 18.3463 33.6429 18.3319 33.6352 18.3171C33.5774 18.2047 33.5054 18.065 33.464 17.973C33.4083 17.8598 33.348 17.7375 33.3249 17.7012C33.3017 17.665 33.2275 17.5291 33.1626 17.4067C33.0976 17.2799 33.0605 17.1666 33.0744 17.144C33.093 17.1259 33.0837 17.1123 33.0605 17.1123C33.0373 17.1123 32.9771 16.999 32.9261 16.8586C32.875 16.7181 32.8055 16.5958 32.7777 16.5867C32.7452 16.5777 32.7174 16.5369 32.7174 16.5006C32.7174 16.4644 32.6803 16.3647 32.6339 16.2832C32.5875 16.2062 32.5551 16.1156 32.5597 16.0929C32.569 16.0703 32.5133 15.9434 32.4391 15.8211C32.3649 15.6942 32.2676 15.5221 32.2258 15.436C32.1841 15.3499 32.1284 15.2367 32.1006 15.1868L32.0912 15.17C32.0624 15.1184 32.0184 15.0398 31.9893 14.9829C31.9569 14.9195 31.9198 14.8063 31.9058 14.7338C31.8873 14.6613 31.8548 14.5752 31.8316 14.5526C31.8038 14.5299 31.7111 14.5073 31.623 14.5073C31.5302 14.5073 31.4467 14.5208 31.4375 14.539V14.5435Z" fill="#202020"/>
<path d="M6.98953 14.6341C7.06837 14.5933 7.51819 14.5752 8.71925 14.5661C9.61425 14.5616 10.4072 14.5571 10.6391 14.548L10.6437 15.9842H9.36847C8.1535 15.9842 8.08858 15.9887 8.00047 16.0748C7.94946 16.1246 7.90772 16.1971 7.90772 16.2334C7.90772 16.2696 7.89381 16.3013 7.87526 16.3013C7.85207 16.3013 7.83352 16.3466 7.82889 16.401C7.82425 16.4599 7.77324 16.5595 7.72223 16.6275C7.67122 16.7 7.61557 16.8178 7.59702 16.8948C7.57383 16.9763 7.5321 17.0488 7.50427 17.0534C7.47181 17.0624 7.44399 17.1123 7.44399 17.1621C7.44399 17.2119 7.4208 17.298 7.38834 17.3524C7.36052 17.4113 7.30951 17.4838 7.27241 17.5109C7.23995 17.5427 7.2214 17.5925 7.23531 17.6151C7.24922 17.6378 7.19821 17.7782 7.12865 17.9187C7.05445 18.0637 6.9478 18.2811 6.88751 18.408C6.82259 18.5303 6.74839 18.6617 6.71593 18.6889C6.68347 18.7206 6.62318 18.861 6.58608 18.9969C6.54899 19.1328 6.48406 19.2552 6.44696 19.2687C6.40987 19.2823 6.37741 19.305 6.37741 19.3231C6.37741 19.3458 6.34494 19.4409 6.29857 19.5406C6.2522 19.6402 6.2151 19.7444 6.2151 19.7671C6.2151 19.7898 6.18264 19.8804 6.14554 19.9619C6.10844 20.0435 6.05743 20.1069 6.02961 20.1069C6.00178 20.1069 5.99715 20.1159 6.02033 20.1295C6.03888 20.1431 6.00178 20.2292 5.93686 20.3198C5.87194 20.415 5.81629 20.5327 5.82093 20.5826C5.82093 20.6324 5.756 20.7638 5.68181 20.8771C5.60297 20.9903 5.51023 21.1806 5.47313 21.3075C5.44067 21.4298 5.36647 21.5793 5.31546 21.6336C5.25981 21.6925 5.22735 21.7696 5.24126 21.8058C5.25517 21.842 5.2459 21.8738 5.21808 21.8738C5.19025 21.8738 5.1717 21.9055 5.1717 21.9417C5.1717 21.978 5.15315 22.0097 5.12533 22.0097C5.09751 22.0097 5.06968 22.0912 5.05577 22.1909C5.04186 22.2906 4.99085 22.4083 4.94447 22.4491C4.89346 22.4944 4.84245 22.5941 4.82854 22.6666C4.81463 22.7391 4.78217 22.807 4.75434 22.8116C4.73116 22.8206 4.70797 22.8659 4.70797 22.9158C4.70797 22.9656 4.68942 23.0064 4.6616 23.0064C4.63377 23.0064 4.60595 23.0426 4.59204 23.0834C4.5791 23.1255 4.56216 23.2029 4.54866 23.2645L4.54566 23.2782C4.53175 23.3416 4.46219 23.4775 4.38336 23.5817C4.30916 23.6905 4.25351 23.8083 4.26743 23.8445C4.28134 23.8807 4.27206 23.9125 4.24424 23.9125C4.21642 23.9125 4.20714 23.9351 4.22105 23.9578C4.23496 23.9804 4.23033 24.0031 4.21178 24.0031C4.18859 24.0031 4.13758 24.0756 4.09584 24.1707C4.05411 24.2658 3.99846 24.4153 3.97064 24.5014C3.94745 24.5875 3.8918 24.6736 3.8547 24.6917C3.81297 24.7143 3.78051 24.7642 3.78051 24.805C3.78051 24.8503 3.73877 24.9726 3.68776 25.0768C3.63675 25.1855 3.55328 25.2942 3.50227 25.3169C3.44662 25.3441 2.82058 25.3622 1.92558 25.3622C0.965655 25.3622 0.441638 25.3441 0.441638 25.3169V23.9215C0.441638 23.849 0.515835 23.8445 2.45887 23.8672L2.59799 23.7312C2.67219 23.6588 2.7232 23.5817 2.70465 23.5636C2.6861 23.541 2.71392 23.4503 2.7603 23.3552C2.81131 23.2646 2.87159 23.1876 2.89942 23.1876C2.92724 23.1876 2.9597 23.1423 2.97361 23.0834C2.99216 23.029 3.01071 22.9339 3.01999 22.8705C3.02462 22.807 3.05245 22.7481 3.071 22.7345C3.09418 22.7209 3.15911 22.6394 3.21475 22.5533C3.2704 22.4672 3.31678 22.3404 3.31678 22.2679C3.31678 22.1999 3.33532 22.1456 3.36315 22.1456C3.39097 22.1456 3.40488 22.132 3.40025 22.1093C3.39561 22.0912 3.4188 22.0142 3.45126 21.9417C3.48372 21.8692 3.53937 21.7831 3.57647 21.7605C3.61356 21.7378 3.65066 21.6427 3.65994 21.5566C3.67385 21.4705 3.71095 21.3845 3.74341 21.3663C3.77587 21.3482 3.80833 21.312 3.81761 21.2848C3.82224 21.2621 3.82688 21.2304 3.82688 21.2168C3.82688 21.2088 3.8301 21.1977 3.8337 21.1852C3.8362 21.1765 3.83889 21.1672 3.84079 21.1579C3.85007 21.1398 3.8918 21.0492 3.93354 20.9541C3.97991 20.8635 4.01237 20.7729 4.01237 20.7502C4.01701 20.7321 4.04947 20.6958 4.09121 20.6732C4.12831 20.6505 4.1654 20.5871 4.17004 20.5373C4.17932 20.4874 4.19787 20.4014 4.21178 20.3425C4.23033 20.2881 4.26279 20.2428 4.29061 20.2428C4.31844 20.2428 4.32771 20.2201 4.3138 20.1975C4.29989 20.1748 4.30916 20.1431 4.33699 20.1295C4.36481 20.1159 4.37408 20.0842 4.36017 20.0616C4.34626 20.0389 4.36945 20.0072 4.40655 19.9936C4.44364 19.98 4.47611 19.9302 4.47611 19.8804C4.47611 19.8305 4.5132 19.7173 4.55958 19.6312C4.60131 19.5406 4.65232 19.4726 4.67551 19.4726C4.69406 19.4726 4.6987 19.45 4.68478 19.4273C4.67087 19.4047 4.67551 19.382 4.6987 19.382C4.71725 19.382 4.75898 19.2959 4.79608 19.1917C4.82854 19.083 4.8981 18.9426 4.94447 18.8701C4.99548 18.8021 5.02331 18.7477 5.0094 18.7477C4.99548 18.7477 5.02795 18.6843 5.07896 18.6118C5.12997 18.5393 5.1717 18.4487 5.1717 18.417C5.1717 18.3898 5.20416 18.2811 5.2459 18.1814C5.28764 18.0818 5.35256 17.964 5.39429 17.9187C5.44067 17.8734 5.45922 17.8371 5.44067 17.8417C5.41748 17.8417 5.45458 17.7692 5.5195 17.6831C5.58442 17.597 5.62616 17.5019 5.61225 17.4792C5.59834 17.4566 5.60761 17.4249 5.63543 17.4113C5.66326 17.3977 5.68181 17.3524 5.68181 17.3071C5.68181 17.2663 5.72818 17.1893 5.77919 17.1394C5.8302 17.0896 5.88121 16.9763 5.89512 16.8903C5.9044 16.8042 5.9415 16.7181 5.97396 16.7C6.00642 16.6819 6.03424 16.623 6.04352 16.5731C6.04816 16.5233 6.1038 16.41 6.16873 16.324C6.23365 16.2379 6.27538 16.1337 6.26147 16.0974C6.24756 16.0612 6.28002 15.9887 6.33103 15.9389C6.38204 15.889 6.44696 15.7667 6.47479 15.667C6.49798 15.5674 6.54899 15.4858 6.57681 15.4858C6.60927 15.4858 6.61855 15.4722 6.6 15.4541C6.57681 15.4315 6.59072 15.3907 6.62318 15.359C6.65101 15.3273 6.66028 15.3001 6.63246 15.3046C6.60463 15.3046 6.62318 15.282 6.67419 15.2502C6.72057 15.2185 6.7623 15.1506 6.76694 15.1007C6.77158 15.0509 6.80404 14.9376 6.83186 14.8516C6.85969 14.7655 6.93388 14.6658 6.98953 14.6341Z" fill="#202020"/>
<path d="M28.8498 19.7173C28.7571 19.7444 28.6922 19.7852 28.7154 19.8033C28.7339 19.8215 28.7015 19.8396 28.6365 19.8396C28.5716 19.8396 28.4696 19.8486 28.4047 19.8622C28.3397 19.8713 28.2563 19.894 28.2192 19.9121C28.1995 19.9193 28.1785 19.9278 28.1611 19.9348L28.1609 19.9349L28.1601 19.9352L28.1541 19.9377C28.1511 19.9389 28.1482 19.94 28.1455 19.9411C28.1401 19.9433 28.1353 19.9451 28.1315 19.9465C28.1296 19.9472 28.1279 19.9479 28.1264 19.9483C28.1125 19.9528 28.0383 19.98 27.9641 20.0117C27.8899 20.0389 27.7972 20.0525 27.7647 20.0389C27.7369 20.0253 27.6859 20.048 27.6627 20.0842C27.6302 20.1295 27.6349 20.1839 27.672 20.2519C27.6998 20.3108 27.7183 20.3561 27.7137 20.3561C27.7091 20.3561 27.7137 20.3878 27.7276 20.424C27.7335 20.4471 27.7545 20.5144 27.7798 20.5954C27.7872 20.6191 27.7949 20.6439 27.8027 20.6691C27.8062 20.6803 27.8097 20.6916 27.8132 20.7029C27.8172 20.7157 27.8211 20.7284 27.825 20.7411C27.8667 20.8771 27.8899 21.0175 27.876 21.0447C27.8621 21.0764 27.8714 21.1036 27.8946 21.1036C27.9177 21.1036 27.9317 21.1353 27.9177 21.1715C27.9038 21.2078 27.9177 21.2486 27.9409 21.2621C27.9641 21.2757 27.978 21.3075 27.9641 21.3301C27.9502 21.3528 27.9641 21.3845 27.9873 21.3981C28.0105 21.4116 28.0244 21.4434 28.0105 21.466C27.9966 21.4887 28.029 21.6019 28.0801 21.7152C28.1311 21.8285 28.1774 21.9825 28.1821 22.055C28.1913 22.132 28.2099 22.1909 28.2284 22.1909C28.2516 22.1909 28.2563 22.2271 28.2424 22.2679C28.2285 22.3132 28.2424 22.363 28.2748 22.3812C28.3073 22.3993 28.3397 22.4718 28.3444 22.5397C28.3537 22.6077 28.4093 22.8206 28.4742 23.0064C28.5392 23.1921 28.5855 23.3688 28.5855 23.3915C28.5809 23.4141 28.5994 23.4911 28.6273 23.5591C28.6644 23.6452 28.669 23.7131 28.6365 23.7765C28.5902 23.8672 28.5438 23.8672 19.4871 23.8672C14.4834 23.8672 10.3423 23.849 10.282 23.8309C10.1846 23.8037 10.1754 23.7811 10.2032 23.618C10.2217 23.5183 10.2867 23.2329 10.3469 22.9837C10.4119 22.7345 10.4907 22.4808 10.5232 22.4174C10.5603 22.354 10.6252 22.1728 10.6623 22.0097C10.704 21.8466 10.7504 21.6427 10.7643 21.5566C10.7782 21.4705 10.8153 21.3709 10.8431 21.3392C10.8756 21.3074 10.8802 21.2803 10.8524 21.2803C10.8246 21.2848 10.8292 21.2667 10.8617 21.2486C10.8895 21.2304 10.9266 21.1262 10.9452 21.013C10.9637 20.8997 10.9823 20.8 10.9962 20.7864C11.0054 20.7729 11.024 20.723 11.0333 20.6732C11.0472 20.6234 11.0796 20.492 11.1075 20.3787C11.1353 20.2654 11.1446 20.1477 11.1307 20.1159C11.1167 20.0888 11.0657 20.0616 11.0147 20.0616C10.9637 20.0616 10.922 20.048 10.922 20.0253C10.922 20.0072 10.7921 19.9574 10.6345 19.9166C10.4722 19.8758 10.2681 19.826 10.18 19.8079C10.0919 19.7943 9.99915 19.7626 9.97133 19.7399C9.9435 19.7127 9.87394 19.7037 9.80902 19.7082C9.7441 19.7173 9.69773 19.749 9.70236 19.7807C9.71164 19.8079 9.69773 19.8351 9.6699 19.8351C9.64208 19.8351 9.6328 19.8577 9.64671 19.8804C9.66063 19.903 9.65599 19.9528 9.63744 19.98C9.61889 20.0117 9.60034 20.0888 9.60034 20.1522C9.5957 20.2156 9.54469 20.3606 9.48905 20.4784C9.43804 20.6007 9.40094 20.7185 9.41485 20.7411C9.42876 20.7638 9.41949 20.7955 9.39166 20.8091C9.36384 20.8227 9.35456 20.8635 9.36847 20.8997C9.38239 20.936 9.37311 20.9677 9.34529 20.9677C9.31746 20.9677 9.30819 20.9903 9.3221 21.013C9.33601 21.0356 9.31283 21.1761 9.27573 21.3165C9.23863 21.4615 9.17835 21.5929 9.15052 21.6065C9.11806 21.6246 9.10415 21.6608 9.1227 21.688C9.14588 21.7152 9.14125 21.7469 9.11342 21.7605C9.0856 21.7741 9.07632 21.8149 9.09024 21.8511C9.10415 21.8873 9.09487 21.9191 9.06705 21.9191C9.03923 21.9191 9.02995 21.9417 9.04386 21.9644C9.05778 21.987 9.0485 22.0369 9.02068 22.064C8.99749 22.0957 8.96503 22.2045 8.95112 22.3041C8.93257 22.4038 8.90938 22.508 8.89547 22.5307C8.87692 22.5533 8.86301 22.6258 8.85837 22.6892C8.85373 22.7527 8.812 22.875 8.77026 22.9611C8.72389 23.0471 8.67752 23.2012 8.66824 23.3008C8.65433 23.4005 8.6265 23.4866 8.59868 23.4911C8.57549 23.5002 8.56622 23.5274 8.58013 23.55C8.59404 23.5727 8.58477 23.6859 8.55694 23.7992C8.52912 23.9125 8.49202 24.0031 8.4642 24.0031C8.43637 24.0031 8.4271 24.0257 8.44101 24.0484C8.45492 24.071 8.44565 24.1027 8.41782 24.1163C8.39 24.1299 8.38073 24.1798 8.39464 24.2296C8.40855 24.2794 8.39928 24.3293 8.37145 24.3428C8.34363 24.3564 8.33435 24.3882 8.34827 24.4108C8.36218 24.4335 8.33899 24.5059 8.30189 24.5694C8.26479 24.6328 8.22306 24.7596 8.20915 24.8503C8.19523 24.9454 8.16741 25.0451 8.14422 25.0677C8.12104 25.0904 8.09321 25.1629 8.08394 25.2263L8.07003 25.3395C8.78881 25.335 9.12733 25.3169 9.28964 25.2942C9.51223 25.258 9.57715 25.2625 9.57715 25.3033C9.57715 25.3486 9.79975 25.3622 10.5371 25.3622C11.0704 25.3622 11.5712 25.3395 11.65 25.3169C11.7521 25.2852 11.8123 25.2852 11.8263 25.3169C11.8402 25.3486 14.4834 25.3622 19.6169 25.3622C25.7521 25.3622 27.403 25.3486 27.4772 25.3033C27.5514 25.258 27.5792 25.2625 27.6256 25.3078C27.6581 25.3395 27.7323 25.3622 27.7879 25.3622C27.8482 25.3622 27.8946 25.3486 27.8946 25.326C27.8946 25.3078 28.1311 25.2988 28.4186 25.3033L28.4359 25.3039C28.7131 25.3127 28.9903 25.3216 29.0539 25.3305C29.1188 25.3395 29.1976 25.3305 29.2255 25.3078C29.2626 25.2897 29.3182 25.2942 29.36 25.326C29.4202 25.3758 29.4805 25.3713 29.6799 25.3169C29.8747 25.2625 29.9396 25.2625 29.9906 25.3033C30.0324 25.3441 30.1576 25.3577 30.3755 25.3441C30.4898 25.3384 30.5947 25.3308 30.6613 25.3261L30.6614 25.326C30.7001 25.3233 30.7258 25.3214 30.7326 25.3214C30.7558 25.3169 30.7372 25.2489 30.6955 25.1674C30.6538 25.0904 30.612 24.9409 30.5981 24.8412C30.5888 24.7415 30.5517 24.5966 30.5193 24.5241C30.4822 24.4516 30.4219 24.3021 30.3802 24.1933C30.3384 24.0891 30.2967 23.917 30.2874 23.8083C30.2781 23.7041 30.241 23.5274 30.2086 23.4141C30.1761 23.3008 30.1205 23.1695 30.088 23.1196C30.0556 23.0698 30.0231 22.9475 30.0185 22.8433C30.0092 22.7436 29.9767 22.6303 29.9443 22.5941C29.9118 22.5579 29.8747 22.4401 29.8654 22.3268C29.8515 22.2135 29.8098 22.0595 29.7773 21.987C29.7402 21.9145 29.6799 21.765 29.6382 21.6563C29.5965 21.5521 29.5547 21.3799 29.5454 21.2712C29.5362 21.167 29.4991 20.9903 29.4666 20.8771C29.4342 20.7638 29.3785 20.6324 29.346 20.5826C29.3136 20.5327 29.2811 20.4104 29.2672 20.3108C29.2579 20.2111 29.2162 20.0661 29.1745 19.9936C29.1327 19.9211 29.1049 19.8215 29.1049 19.7807C29.1095 19.7399 29.091 19.6946 29.0678 19.6856C29.0446 19.6765 28.9472 19.6901 28.8498 19.7173Z" fill="#202020"/>
<path d="M9.11342 28.6015C9.09487 28.5516 9.0856 28.4973 9.09487 28.4791C9.10879 28.461 9.20153 28.452 9.31283 28.4656C9.41949 28.4746 9.81829 28.4973 10.2032 28.5063C10.5835 28.5199 10.9823 28.5109 11.0843 28.4927C11.2095 28.4656 11.293 28.4701 11.3486 28.5018C11.4182 28.5471 11.4321 28.6558 11.4553 29.9606L9.1598 29.9379V29.5302C9.1598 29.3037 9.14125 29.0817 9.11342 29.0319C9.0856 28.9775 9.08096 28.8914 9.10879 28.8144C9.12733 28.7464 9.13197 28.6513 9.11342 28.6015Z" fill="#202020"/>
<path d="M24.0317 28.4746C23.5262 28.4882 23.4427 28.4973 23.4288 28.5607C23.4242 28.6015 23.4242 28.9322 23.4335 29.2992L23.4474 29.9606H25.7614C25.7614 29.4441 25.7428 29.3037 25.715 29.3037C25.6918 29.3037 25.6686 29.2629 25.6686 29.2131C25.6686 29.1632 25.6918 29.1134 25.715 29.0998C25.7382 29.0862 25.7614 28.9458 25.7614 28.7827C25.7614 28.5788 25.7428 28.4882 25.7011 28.4837C25.6733 28.4791 25.6362 28.4791 25.6223 28.4791C25.6183 28.4791 25.6087 28.4799 25.595 28.4809C25.5605 28.4836 25.4998 28.4882 25.4368 28.4882C25.3487 28.4927 25.1261 28.4927 24.9499 28.4791C24.769 28.4701 24.3609 28.4701 24.0317 28.4746Z" fill="#202020"/>
<path d="M4.38336 29.9379V28.4882L6.67883 28.5109V29.2221C6.67883 29.6163 6.66492 29.9379 6.64173 29.9379H4.38336Z" fill="#202020"/>
<path d="M13.9594 28.5199C13.9362 28.5426 13.9177 28.606 13.9177 28.6694C13.9177 28.689 13.9186 28.732 13.9198 28.7913C13.9225 28.9241 13.927 29.1389 13.927 29.3581L13.9362 29.9379H16.1621L16.1668 28.5562C15.9303 28.5018 15.4434 28.4882 14.9333 28.4882C14.4232 28.4882 13.9872 28.5018 13.9594 28.5199Z" fill="#202020"/>
<path d="M18.6153 29.2539C18.6106 28.8642 18.6246 28.5335 18.6431 28.5199C18.6617 28.5018 19.181 28.4927 19.7885 28.5018C20.563 28.5063 20.9061 28.5245 20.9293 28.5607C20.9479 28.5924 20.9571 28.9186 20.9339 29.9606H18.6199L18.6153 29.2539Z" fill="#202020"/>
<path d="M28.1728 29.9379L30.5146 29.9153C30.5378 29.1995 30.5193 28.9005 30.4822 28.7464L30.4219 28.4882H28.1728V29.9379Z" fill="#202020"/>
<path d="M32.9168 29.272C32.9121 28.905 32.9168 28.5788 32.9307 28.5471C32.9446 28.5018 33.1997 28.4882 35.2447 28.4882L35.2262 29.1995C35.2169 29.5936 35.2076 29.9198 35.203 29.9244C35.203 29.9289 34.6882 29.9334 32.9261 29.9425L32.9168 29.272Z" fill="#202020"/>
<path d="M0.460187 33.1772C0.450913 33.1999 0.437001 33.4037 0.423089 33.6303C0.417558 33.7626 0.410379 33.8886 0.405483 33.9744C0.40217 34.0326 0.399902 34.0723 0.399902 34.0833C0.399902 34.106 0.413814 34.2419 0.432364 34.3778L0.464825 34.627L38.3749 34.6496V33.1772C38.3749 33.1636 29.8469 33.15 19.4268 33.141C6.82259 33.1364 0.474099 33.1455 0.460187 33.1772Z" fill="#202020"/>
</svg>
