<svg width="38" height="38" viewBox="0 0 38 38" fill="none" xmlns="http://www.w3.org/2000/svg">
<path d="M33.2425 24.3185L28.3196 20.7258C28.0508 20.5296 27.6869 20.6119 27.509 20.9121C27.3315 21.2118 27.4068 21.6151 27.6767 21.8118L31.7462 24.7816L14.6807 31.5121L2.50881 22.569L9.46711 19.7568C9.77058 19.6343 9.92777 19.2613 9.81661 18.9239C9.70622 18.5869 9.36999 18.4123 9.06691 18.5357L1.00824 21.7927C0.714136 21.9114 0.559672 22.2653 0.651336 22.5941V26.4553C0.651336 26.5311 0.665379 26.6026 0.686832 26.6702C0.690733 26.8759 0.782007 27.076 0.948173 27.1982L14.2781 36.9921C14.3776 37.0648 14.4899 37.0999 14.6007 37.0999C14.7166 37.0999 14.8285 37.0575 14.926 36.9851L33.2874 29.7439C33.5035 29.6586 33.6443 29.4459 33.67 29.2089C33.7024 29.1284 33.7211 29.0396 33.7211 28.9456V24.9566C33.7207 24.6382 33.5144 24.3744 33.2425 24.3185ZM1.82152 23.6224L14.016 32.582V35.2412L1.82152 26.2816V23.6224ZM15.1862 32.6916L32.5509 25.8432V28.6549L15.1862 35.5033V32.6916Z" fill="#202020" stroke="#202020" stroke-width="0.5"/>
<path d="M37.3755 10.7942C37.3755 10.4762 37.1695 10.2124 36.8977 10.1566L23.7003 0.454953C23.6898 0.447156 23.6781 0.442824 23.6676 0.435893C23.6496 0.424631 23.6321 0.413369 23.613 0.404272C23.595 0.395609 23.5771 0.388678 23.5591 0.382181C23.5416 0.375683 23.5244 0.369619 23.5065 0.365287C23.487 0.360522 23.4675 0.35749 23.4476 0.354891C23.43 0.352725 23.4125 0.350126 23.3945 0.349693C23.3742 0.34926 23.3544 0.35056 23.3341 0.352292C23.3165 0.353592 23.299 0.355324 23.281 0.358357C23.2603 0.362255 23.2401 0.368319 23.2198 0.374817C23.2077 0.378715 23.1956 0.380015 23.1835 0.384347L4.66808 7.62211C4.3689 7.73907 4.21053 8.09859 4.3061 8.4317V12.2877C4.3061 12.3614 4.31936 12.4311 4.34004 12.497C4.34277 12.7044 4.43443 12.9072 4.60177 13.0302L17.9294 22.8275C18.0288 22.9003 18.1408 22.9354 18.252 22.9354C18.3682 22.9354 18.4805 22.8929 18.5781 22.8197L36.9398 15.5824C37.1551 15.4975 37.2951 15.2865 37.3221 15.0509C37.3556 14.969 37.3755 14.8785 37.3755 14.7828V10.7942ZM23.2974 1.7172L35.4045 10.6175L18.3319 17.3462L6.17566 8.41004L23.2974 1.7172ZM5.47628 9.4544L17.6673 18.4162V21.0758L5.47628 12.114V9.4544ZM18.8374 18.5258L36.2053 11.6804V14.4921L18.8374 21.3379V18.5258Z" fill="#202020" stroke="#202020" stroke-width="0.5"/>
</svg>
