<svg width="44" height="44" viewBox="0 0 44 44" fill="none" xmlns="http://www.w3.org/2000/svg">
<path d="M21.7532 31.3411C20.9753 31.8598 19.9242 31.6496 19.4055 30.8715C18.8868 30.0936 19.0971 29.0424 19.8751 28.5237L30.0333 21.7514C30.6303 21.3535 31.3879 21.3847 31.9426 21.7721L42.0697 28.5237C42.8476 29.0424 43.0579 30.0936 42.5393 30.8715C42.0206 31.6496 40.9695 31.8598 40.1915 31.3411M21.7532 31.3411L30.9724 25.1949L40.1915 31.3411M21.7532 31.3411L21.7543 43.1002M40.1915 31.3411L40.1926 43.1002M41.0391 43.1002H20.9078M33.5119 43.1002V35.4813H28.4327V43.1002M30.9723 31.2927V31.295M9.82512 13.2511L12.0871 11.7431C12.684 11.345 13.4417 11.3763 13.9963 11.7638L24.1235 18.5154C24.9014 19.0341 25.1117 20.0852 24.5931 20.8632C24.0744 21.6412 23.0233 21.8515 22.2453 21.3328M22.2453 21.3328L13.0261 15.1865L3.80705 21.3328M22.2453 21.3328L22.2464 26.9435M3.80705 21.3328C3.0291 21.8515 1.97798 21.6412 1.45932 20.8632C0.940653 20.0852 1.15093 19.0341 1.92888 18.5154L4.19035 17.0076M3.80705 21.3328L3.80808 30.6831M21.7541 33.0919H6.56206M15.5656 33.0919V25.473H10.4865V33.0919M13.0261 21.284V21.2867M27.7718 3.24242L30.0333 1.73464C30.6303 1.33676 31.3879 1.36792 31.9426 1.75546L42.0697 8.50698C42.8477 9.02566 43.0579 10.0768 42.5393 10.8549C42.0206 11.6328 40.9695 11.8431 40.1915 11.3244M40.1915 11.3244L30.9724 5.17821L21.7533 11.3244M40.1915 11.3244L40.1926 23.0835M21.7533 11.3244C20.9753 11.8431 19.9241 11.6328 19.4055 10.8549C18.8869 10.0768 19.0971 9.02566 19.8751 8.50698L22.1371 6.99904M21.7533 11.3244L21.7543 16.9351M28.0361 23.0835H22.2465M42.8248 23.0835H33.9107M33.5119 22.8184V15.4647H28.4327V22.8185M30.9723 11.276V11.2783M1.1748 36.0184H7.88355C7.88355 35.0187 7.22758 34.1724 6.32274 33.8861C6.76005 33.0437 6.62545 31.9814 5.91861 31.2746C5.21177 30.5676 4.14947 30.433 3.3071 30.8703C3.02081 29.9655 2.17446 29.3095 1.1748 29.3095M15.7682 43.1002C15.7682 42.2087 16.3531 41.4538 17.1602 41.1984C16.7701 40.4471 16.8902 39.4998 17.5206 38.8693C18.151 38.2389 19.0984 38.1188 19.8497 38.509C20.1051 37.7018 20.8599 37.1168 21.7514 37.1168M7.00836 15.1285L7.00671 15.1296M24.9546 5.11972L24.9529 5.12082" stroke="#202020" stroke-width="1.5" stroke-miterlimit="2.613" stroke-linecap="round" stroke-linejoin="round"/>
</svg>
