<svg width="38" height="37" viewBox="0 0 38 37" fill="none" xmlns="http://www.w3.org/2000/svg">
<path d="M35.8857 33.9794H34.4785V10.0576C34.4785 9.8146 34.4156 9.57578 34.2959 9.36436C34.1762 9.15293 34.0038 8.97609 33.7955 8.85106L19.7238 0.408073C19.5052 0.276533 19.2548 0.207031 18.9997 0.207031C18.7445 0.207031 18.4942 0.276533 18.2756 0.408073L9.83257 5.47387C9.62425 5.59889 9.45185 5.77573 9.33215 5.98716C9.21245 6.19859 9.14954 6.43741 9.14953 6.68037V12.0018L4.29861 14.4275C4.06488 14.5444 3.86832 14.7241 3.73095 14.9464C3.59359 15.1687 3.52084 15.4249 3.52087 15.6862V33.9794H2.11371C1.7405 33.9794 1.38259 34.1276 1.11869 34.3915C0.854797 34.6554 0.706543 35.0133 0.706543 35.3865C0.706543 35.7597 0.854797 36.1177 1.11869 36.3815C1.38259 36.6454 1.7405 36.7937 2.11371 36.7937H35.8857C36.2589 36.7937 36.6168 36.6454 36.8807 36.3815C37.1446 36.1177 37.2928 35.7597 37.2928 35.3865C37.2928 35.0133 37.1446 34.6554 36.8807 34.3915C36.6168 34.1276 36.2589 33.9794 35.8857 33.9794ZM20.4069 33.9794H17.5925V28.3507H20.4069V33.9794ZM31.6642 33.9794H28.8498V18.5006C28.8498 18.1274 28.7016 17.7694 28.4377 17.5055C28.1738 17.2416 27.8159 17.0934 27.4427 17.0934H10.5567C10.1835 17.0934 9.82558 17.2416 9.56168 17.5055C9.29779 17.7694 9.14953 18.1274 9.14953 18.5006V29.7579C9.14953 30.1311 9.29779 30.489 9.56168 30.7529C9.82558 31.0168 10.1835 31.165 10.5567 31.165C10.9299 31.165 11.2878 31.0168 11.5517 30.7529C11.8156 30.489 11.9639 30.1311 11.9639 29.7579V19.9077H26.0355V33.9794H23.2212V26.9435C23.2212 26.5703 23.0729 26.2124 22.809 25.9485C22.5451 25.6846 22.1872 25.5364 21.814 25.5364H16.1854C15.8122 25.5364 15.4542 25.6846 15.1903 25.9485C14.9264 26.2124 14.7782 26.5703 14.7782 26.9435V33.9794H6.3352V16.5561L11.1585 14.1444C11.1764 14.1354 11.1936 14.1272 11.2107 14.1177L17.5925 10.9275V12.8719C17.5925 13.2451 17.7408 13.603 18.0047 13.8669C18.2686 14.1308 18.6265 14.2791 18.9997 14.2791C19.3729 14.2791 19.7308 14.1308 19.9947 13.8669C20.2586 13.603 20.4069 13.2451 20.4069 12.8719V8.6504C20.4069 8.41051 20.3456 8.1746 20.2288 7.96508C20.112 7.75555 19.9435 7.57936 19.7395 7.45324C19.5354 7.32712 19.3025 7.25526 19.0629 7.24449C18.8232 7.23372 18.5848 7.28439 18.3703 7.39169L11.9639 10.5948V7.47753L18.9997 3.25603L31.6642 10.8547V33.9794Z" fill="#202020"/>
</svg>
